<svg width="36" height="38" viewBox="0 0 36 38" fill="none" xmlns="http://www.w3.org/2000/svg">
<path d="M35.8077 19.1081C35.8066 9.27442 27.8349 1.30273 18 1.30273C8.16512 1.30273 0.192245 9.27561 0.192245 19.1105C0.192245 27.9633 6.65225 35.3068 15.1144 36.6855L15.2165 36.6997V24.2571H10.6945V19.1081H15.2165V15.187C15.1939 14.9887 15.1821 14.7583 15.1821 14.5255C15.1821 11.0545 17.9964 8.24011 21.4675 8.24011C21.6349 8.24011 21.8012 8.24723 21.9662 8.25911L21.9449 8.25792C23.3687 8.27811 24.7462 8.40398 26.0904 8.62842L25.9313 8.60586V12.9877H23.6846C23.5824 12.9735 23.4649 12.9652 23.3461 12.9652C21.9247 12.9652 20.7716 14.117 20.7716 15.5397C20.7716 15.6204 20.7752 15.7 20.7823 15.7795L20.7811 15.7689V19.1081H25.7199L24.9302 24.2571H20.7811V36.6997C29.3466 35.3056 35.8066 27.9609 35.8077 19.1081Z" fill="white"/>
</svg>
