<svg width="36" height="38" viewBox="0 0 36 38" fill="none" xmlns="http://www.w3.org/2000/svg">
<path d="M25.0889 1.38086H10.8477C8.06506 1.38412 5.39733 2.48935 3.42984 4.45404C1.46236 6.41873 0.35583 9.08241 0.353027 11.8607L0.353027 26.0792C0.356297 28.8575 1.46328 31.521 3.43109 33.4854C5.3989 35.4497 8.06683 36.5545 10.8495 36.5573H25.0907C27.8733 36.554 30.5411 35.4488 32.5086 33.4841C34.476 31.5194 35.5826 28.8557 35.5854 26.0775V11.8589C35.5821 9.08065 34.4751 6.41715 32.5073 4.45279C30.5395 2.48843 27.8716 1.38366 25.0889 1.38086V1.38086ZM32.0419 26.0775C32.0419 26.9891 31.862 27.8918 31.5126 28.734C31.1632 29.5763 30.651 30.3415 30.0054 30.9861C29.3597 31.6308 28.5933 32.1421 27.7497 32.491C26.9061 32.8398 26.002 33.0194 25.0889 33.0194H10.8477C9.004 33.0189 7.23595 32.2873 5.9324 30.9855C4.62885 29.6837 3.89656 27.9183 3.89656 26.0775V11.8589C3.89702 10.0181 4.62977 8.25286 5.93365 6.95138C7.23753 5.6499 9.00577 4.91876 10.8495 4.91876H25.0907C26.9344 4.91923 28.7025 5.65082 30.006 6.95262C31.3096 8.25443 32.0419 10.0199 32.0419 11.8607V26.0792V26.0775Z" fill="white"/>
<path d="M17.9683 9.87109C15.5532 9.87482 13.2381 10.8345 11.5305 12.5397C9.82289 14.2449 8.86215 16.5565 8.85889 18.9678C8.86169 21.3797 9.82246 23.6921 11.5305 25.3977C13.2385 27.1033 15.5543 28.063 17.9701 28.0663C20.3861 28.0635 22.7024 27.104 24.4108 25.3983C26.1192 23.6926 27.0802 21.38 27.083 18.9678C27.0793 16.5559 26.1176 14.2439 24.4089 12.539C22.7002 10.834 20.384 9.87519 17.9683 9.87286V9.87109ZM17.9683 24.5284C16.4917 24.5284 15.0755 23.9427 14.0314 22.9002C12.9872 21.8578 12.4007 20.4439 12.4007 18.9696C12.4007 17.4953 12.9872 16.0814 14.0314 15.0389C15.0755 13.9964 16.4917 13.4108 17.9683 13.4108C19.4449 13.4108 20.8611 13.9964 21.9052 15.0389C22.9494 16.0814 23.5359 17.4953 23.5359 18.9696C23.5359 20.4439 22.9494 21.8578 21.9052 22.9002C20.8611 23.9427 19.4449 24.5284 17.9683 24.5284Z" fill="white"/>
<path d="M27.0987 12.1197C28.3043 12.1197 29.2817 11.1439 29.2817 9.94022C29.2817 8.73653 28.3043 7.76074 27.0987 7.76074C25.8931 7.76074 24.9158 8.73653 24.9158 9.94022C24.9158 11.1439 25.8931 12.1197 27.0987 12.1197Z" fill="white"/>
</svg>
