<svg width="37" height="36" viewBox="0 0 37 36" fill="none" xmlns="http://www.w3.org/2000/svg">
<path d="M0.787262 35.4253L3.27817 26.3292C1.74168 23.6669 0.933487 20.647 0.934616 17.5532C0.938568 7.87439 8.81497 0 18.4935 0C23.1902 0.00197603 27.5987 1.83007 30.9139 5.14807C34.2288 8.46607 36.0538 12.8765 36.0521 17.5673C36.0479 27.2458 28.1703 35.1213 18.4935 35.1213C18.4929 35.1213 18.4938 35.1213 18.4935 35.1213H18.4859C15.5473 35.1202 12.66 34.3831 10.0954 32.9844L0.787262 35.4253ZM10.5265 29.8067L11.0597 30.1226C13.3 31.4521 15.8685 32.1553 18.4878 32.1567H18.4935C26.537 32.1567 33.0838 25.611 33.0872 17.5661C33.0886 13.6675 31.5722 10.0014 28.8168 7.24376C26.0611 4.4861 22.3973 2.96655 18.4989 2.96486C10.4489 2.96486 3.90231 9.50968 3.8992 17.5543C3.89808 20.3111 4.66929 22.9957 6.13041 25.3189L6.47762 25.871L5.00295 31.2548L10.5265 29.8067Z" fill="white"/>
<path fill-rule="evenodd" clip-rule="evenodd" d="M14.105 10.2147C13.7764 9.48412 13.4304 9.46944 13.1176 9.45674C12.8618 9.44573 12.5691 9.44629 12.2769 9.44629C11.9845 9.44629 11.5091 9.55639 11.1071 9.99535C10.7049 10.4343 9.57122 11.4957 9.57122 13.6544C9.57122 15.8133 11.1436 17.8992 11.3629 18.1922C11.5822 18.4849 14.398 23.0563 18.8573 24.815C22.5635 26.2766 23.3175 25.9859 24.122 25.9128C24.9265 25.8397 26.7176 24.8514 27.0832 23.8269C27.449 22.8025 27.449 21.9246 27.3392 21.7408C27.2294 21.5582 26.9369 21.4484 26.4983 21.229C26.0596 21.0097 23.9026 19.948 23.5004 19.8018C23.0981 19.6553 22.8057 19.5824 22.5132 20.0217C22.2205 20.4604 21.3804 21.4484 21.1244 21.7408C20.8683 22.0341 20.6123 22.0708 20.1736 21.8512C19.735 21.6313 18.3218 21.1683 16.6456 19.6736C15.3414 18.5109 14.4607 17.0746 14.2047 16.6353C13.9489 16.1967 14.2004 15.9799 14.3975 15.7402C14.7523 15.3086 15.3477 14.5326 15.4939 14.2401C15.6401 13.9471 15.567 13.6911 15.4575 13.4715C15.3477 13.2521 14.4949 11.0824 14.105 10.2147V10.2147Z" fill="white"/>
</svg>
